 <svg  version="1.0" xmlns="http://www.w3.org/2000/svg"  width="300.000000pt" height="300.000000pt" viewBox="0 0 300.000000 300.000000"  preserveAspectRatio="xMidYMid meet">  <g transform="translate(0.000000,300.000000) scale(0.100000,-0.100000)" fill="#0d54ab" stroke="none"> <path d="M1345 2874 c-202 -29 -335 -69 -478 -140 -397 -199 -660 -540 -758 -985 -20 -88 -23 -131 -22 -279 0 -190 16 -288 68 -445 28 -84 109 -253 146 -308 234 -338 528 -540 909 -623 121 -27 429 -27 550 0 285 62 503 180 711 386 256 253 395 560 415 920 36 624 -359 1206 -954 1406 -132 45 -246 64 -407 68 -82 3 -163 2 -180 0z m406 -53 c228 -47 424 -138 594 -275 54 -43 165 -154 205 -205 14 -17 35 -43 47 -58 13 -16 23 -31 23 -35 0 -4 7 -13 15 -21 8 -8 16 -21 17 -28 2 -7 10 -21 18 -31 8 -10 15 -22 16 -26 1 -11 48 -107 56 -112 9 -7 58 -150 51 -150 -3 0 0 -7 7 -15 7 -9 10 -18 7 -22 -4 -3 -1 -15 5 -27 13 -24 20 -57 22 -103 0 -18 4 -33 7 -33 7 0 8 -24 12 -183 1 -64 0 -117 -3 -117 -3 0 -5 -19 -4 -41 1 -23 -3 -58 -8 -78 -8 -32 -17 -75 -22 -106 -1 -5 -6 -16 -10 -24 -6 -10 -5 -12 2 -7 8 5 10 2 6 -8 -3 -9 -10 -13 -15 -10 -5 3 -6 -1 -3 -9 3 -8 1 -18 -5 -21 -6 -4 -8 -13 -5 -20 3 -8 1 -17 -5 -21 -6 -3 -11 -17 -11 -30 0 -13 -7 -31 -16 -39 -8 -9 -12 -16 -9 -16 4 0 -2 -16 -14 -36 -12 -19 -21 -40 -21 -46 0 -5 -15 -29 -32 -51 -18 -23 -27 -37 -19 -33 18 11 7 -9 -22 -41 -11 -13 -16 -27 -11 -35 4 -7 4 -10 -1 -6 -7 7 -35 -14 -35 -27 0 -3 -4 -11 -10 -18 -5 -7 -21 -27 -36 -45 -14 -17 -31 -29 -36 -25 -6 3 -8 1 -5 -4 4 -6 0 -16 -9 -23 -8 -7 -13 -19 -10 -27 3 -7 -1 -13 -10 -13 -9 0 -33 -18 -55 -40 -21 -21 -39 -36 -39 -32 0 4 -15 -7 -33 -25 -65 -64 -76 -72 -81 -60 -2 7 -5 4 -5 -5 -1 -9 -6 -20 -13 -24 -7 -5 -8 -3 -3 7 5 8 -1 5 -13 -5 -12 -11 -22 -16 -22 -12 0 4 -10 -3 -22 -14 -12 -11 -27 -19 -34 -16 -6 2 -23 -9 -38 -25 -15 -16 -30 -28 -34 -27 -13 4 -52 -13 -52 -22 0 -5 -6 -7 -13 -4 -8 3 -19 -2 -26 -10 -7 -8 -20 -12 -28 -9 -9 4 -14 2 -10 -3 3 -5 -7 -10 -21 -9 -15 0 -26 -5 -25 -12 3 -12 -14 -12 -33 0 -12 7 -38 -16 -29 -25 3 -2 -2 -5 -10 -5 -8 0 -11 5 -8 10 3 6 2 8 -3 5 -19 -11 -50 -21 -74 -24 -55 -7 -93 -14 -114 -19 -17 -5 -18 -4 -6 5 12 10 12 11 -5 5 -40 -14 -134 -21 -172 -11 -14 3 -23 0 -23 -7 0 -8 -3 -9 -8 -1 -4 6 -25 10 -47 10 -76 0 -217 27 -243 47 -8 6 -18 5 -29 -4 -9 -8 -14 -9 -10 -3 7 12 -98 53 -126 48 -9 -1 -15 2 -11 7 3 5 -2 9 -11 9 -9 0 -14 4 -10 9 3 6 -4 8 -15 6 -11 -2 -20 1 -20 6 0 6 -5 7 -10 4 -6 -3 -13 0 -16 9 -3 8 -11 13 -18 10 -7 -3 -19 2 -26 11 -15 18 -34 20 -24 3 4 -7 5 -11 1 -8 -3 3 -5 9 -6 13 0 5 -26 25 -58 45 -32 20 -64 42 -71 49 -7 7 -18 13 -23 13 -5 0 -8 3 -7 7 2 5 -1 9 -5 10 -5 1 -24 17 -43 37 -19 20 -36 35 -37 33 -8 -5 -35 31 -29 38 4 5 2 5 -4 2 -11 -6 -64 45 -64 61 0 5 -11 15 -25 22 -13 7 -22 17 -19 21 2 4 0 10 -6 14 -6 4 -7 11 -4 17 4 6 2 8 -3 5 -14 -9 -77 81 -104 145 -6 16 -15 26 -19 23 -5 -3 -7 3 -5 12 1 10 -7 28 -18 40 -11 13 -17 23 -14 23 4 0 0 11 -8 24 -11 17 -13 26 -5 31 8 5 8 11 -1 21 -6 7 -15 12 -19 9 -10 -6 -30 64 -23 83 5 11 3 13 -8 7 -11 -7 -11 -5 1 10 11 14 12 17 1 10 -11 -6 -13 -1 -9 23 3 24 2 29 -8 21 -9 -8 -11 -5 -7 12 4 13 2 20 -4 16 -5 -3 -10 0 -10 8 0 8 3 12 7 10 4 -2 7 2 7 10 0 8 -4 12 -8 10 -11 -8 -20 24 -13 51 3 13 2 24 -3 24 -5 0 -9 18 -9 39 1 22 -2 37 -5 36 -3 -2 -5 25 -5 60 1 35 5 61 10 57 5 -3 6 1 1 8 -13 21 -13 63 -1 79 9 12 8 13 -3 6 -11 -6 -13 -4 -7 11 4 10 10 50 13 89 3 38 9 78 14 87 5 9 9 28 9 42 0 14 6 26 13 27 9 0 9 2 0 6 -9 3 -9 10 3 28 9 13 17 34 19 47 9 53 21 85 87 215 28 56 55 100 59 97 4 -2 11 6 15 18 14 45 146 202 160 190 4 -4 4 -2 1 4 -6 11 54 70 148 144 86 69 250 157 375 201 217 77 497 96 721 50z"/> <path d="M1427 2754 c-3 -3 -33 -6 -66 -6 -35 -1 -61 -5 -61 -11 0 -6 -2 -8 -5 -5 -3 3 -34 -1 -68 -9 -34 -8 -69 -16 -77 -17 -30 -6 -75 -18 -90 -23 -8 -4 -17 -7 -20 -7 -3 -1 -39 -18 -80 -38 -41 -20 -82 -38 -90 -40 -8 -2 -22 -13 -31 -26 -9 -13 -19 -23 -23 -23 -13 1 -42 -13 -56 -28 -18 -20 -23 -41 -10 -41 5 0 10 4 10 8 0 5 14 19 31 31 29 21 31 22 25 4 -5 -14 9 -40 44 -88 28 -37 50 -69 48 -70 -2 -1 -43 6 -93 16 -49 10 -94 18 -98 19 -5 0 8 -20 29 -45 39 -48 64 -58 64 -25 0 11 5 20 11 20 5 0 8 -4 5 -8 -4 -7 13 -7 91 0 7 1 10 5 7 10 -3 4 4 8 16 8 12 0 18 5 15 10 -3 6 3 10 13 10 11 0 25 7 32 15 7 8 19 15 27 15 8 0 11 5 8 10 -3 6 -1 10 5 10 6 0 9 4 6 9 -4 5 5 6 21 2 20 -5 38 -1 66 15 21 12 47 19 58 17 10 -3 35 2 54 11 19 9 49 16 67 16 54 0 65 2 76 21 10 16 8 17 -26 13 -20 -3 -45 -7 -54 -9 -19 -3 -25 11 -7 17 7 2 8 24 4 65 -9 72 -17 88 -40 79 -13 -4 -16 -14 -12 -33 5 -26 4 -26 -9 -8 -8 10 -14 26 -14 34 0 10 -3 12 -10 5 -7 -7 -7 -20 -1 -40 6 -16 15 -48 21 -71 7 -27 16 -43 26 -43 8 0 12 -4 9 -10 -3 -5 -17 -10 -31 -10 -14 0 -34 -5 -45 -10 -20 -11 -26 -1 -10 16 13 12 -22 147 -39 152 -9 3 -11 -3 -6 -24 7 -28 7 -28 -13 -10 -11 10 -27 16 -36 13 -13 -6 -12 -13 6 -59 12 -29 24 -61 26 -70 3 -10 13 -18 22 -19 9 0 -6 -11 -34 -23 -47 -22 -77 -26 -45 -6 12 8 11 19 -10 80 -27 76 -50 90 -61 35 l-6 -30 -12 29 c-6 16 -8 32 -4 36 8 8 134 50 218 74 28 7 78 17 113 20 35 4 69 9 76 12 8 3 16 -5 20 -22 8 -32 -2 -46 -15 -21 -13 23 -52 23 -45 0 2 -10 8 -42 11 -71 7 -51 14 -61 50 -66 9 -1 20 -7 23 -12 20 -28 112 -38 120 -13 2 5 10 9 18 9 8 0 14 6 14 13 0 8 4 7 10 -3 5 -8 10 -10 10 -5 1 6 7 -2 15 -16 12 -23 20 -26 69 -27 58 0 80 -7 71 -23 -4 -5 5 -10 19 -10 14 -1 31 -3 36 -4 6 -1 15 -3 21 -4 5 0 7 -7 3 -13 -5 -8 0 -7 11 2 22 18 19 18 36 3 11 -9 18 -7 34 11 11 12 21 33 21 46 l2 24 -18 -22 c-10 -12 -20 -27 -22 -32 -2 -6 -34 0 -78 14 -41 13 -103 30 -138 36 -51 11 -59 15 -46 24 22 17 46 143 27 150 -7 3 -22 -5 -34 -17 l-22 -22 8 30 c3 16 8 31 9 32 10 11 326 -69 326 -82 0 -2 -5 -16 -11 -32 l-12 -28 -6 25 c-4 14 -18 30 -31 37 -27 13 -31 10 -44 -34 -9 -27 14 -32 34 -8 7 9 15 14 17 11 8 -8 -20 -85 -29 -80 -4 3 -6 9 -3 14 5 9 -23 36 -30 28 -3 -2 -8 -18 -11 -35 -5 -27 -3 -31 21 -37 18 -5 35 -1 51 9 23 15 36 43 13 30 -6 -4 -5 2 3 14 7 12 18 21 24 21 6 0 16 12 23 26 9 21 8 31 -5 54 -10 15 -24 27 -32 26 -8 -2 -32 6 -53 16 -21 10 -49 18 -63 18 -14 0 -37 5 -53 12 -15 6 -44 12 -63 13 -19 1 -52 5 -73 10 -24 5 -48 3 -63 -4 -19 -8 -31 -8 -47 1 -25 13 -72 20 -80 12z m77 -42 c-16 -13 -22 -30 -23 -70 -3 -58 10 -82 43 -82 36 0 46 20 46 87 0 49 -3 63 -15 63 -8 0 -15 5 -15 10 0 6 16 10 35 10 19 0 35 -4 35 -10 0 -5 -4 -10 -10 -10 -6 0 -10 -28 -10 -65 0 -80 -19 -105 -80 -105 -62 0 -80 24 -80 109 0 46 -4 71 -12 74 -7 3 14 6 47 6 58 1 59 0 39 -17z m41 -70 c1 -23 -2 -42 -7 -42 -4 0 -8 5 -8 11 0 5 -4 7 -10 4 -5 -3 -10 -1 -10 4 0 6 6 11 13 11 8 0 7 4 -3 10 -13 9 -13 12 3 24 11 9 14 16 7 19 -6 3 -6 5 1 3 7 -1 13 -21 14 -44z m-580 -62 c15 -30 9 -40 -12 -19 -6 6 -23 9 -39 7 -22 -2 -30 -9 -32 -27 -4 -23 -2 -24 50 -18 60 7 81 -2 93 -41 5 -17 -1 -29 -24 -52 -16 -17 -39 -30 -50 -30 -12 0 -21 -4 -21 -10 0 -19 -15 -10 -32 20 -19 34 -19 34 16 19 34 -16 76 -4 76 21 0 22 -6 24 -62 21 -51 -3 -78 13 -78 49 0 35 34 70 67 70 13 0 23 5 23 10 0 18 9 11 25 -20z"/> <path d="M1712 2608 c-12 -78 -8 -88 34 -88 18 0 25 12 44 71 17 50 20 73 12 81 -8 8 -13 3 -18 -16 l-6 -27 -12 23 c-6 12 -18 24 -27 26 -12 2 -18 -13 -27 -70z"/> <path d="M2022 2575 c-45 -20 -74 -75 -67 -127 4 -24 10 -44 15 -46 5 -2 6 -10 3 -19 -4 -10 -2 -14 4 -10 6 4 27 -6 48 -22 22 -16 46 -26 57 -23 10 2 18 -1 18 -7 0 -19 54 -66 78 -67 12 -1 22 1 22 4 0 3 -19 23 -42 45 -24 22 -36 37 -27 34 16 -5 39 15 93 80 15 19 16 27 6 57 -6 20 -15 34 -19 32 -4 -3 -13 9 -20 25 -9 20 -18 28 -28 25 -8 -3 -12 -2 -8 3 5 9 -38 23 -82 26 -12 1 -35 -4 -51 -10z m134 -49 c53 -53 45 -119 -18 -152 -66 -34 -148 16 -148 91 0 94 97 130 166 61z"/> <path d="M2078 2520 c-51 -40 -64 -122 -20 -128 58 -9 121 112 73 138 -25 13 -24 13 -53 -10z m15 -72 c-9 -15 -20 -25 -25 -22 -12 8 -10 22 9 50 23 35 37 9 16 -28z"/> <path d="M766 2481 c-3 -5 -24 -8 -46 -6 -22 1 -37 -1 -34 -6 2 -5 -7 -11 -21 -15 -13 -3 -23 -10 -20 -14 6 -10 -24 -22 -36 -14 -5 3 -9 2 -8 -3 4 -21 -2 -33 -16 -33 -8 0 -15 -6 -16 -12 0 -7 -2 -20 -4 -29 -1 -9 19 -38 46 -64 45 -45 60 -67 42 -64 -23 4 -24 -4 -3 -26 l23 -24 -39 -53 c-54 -73 -87 -136 -80 -153 3 -8 3 -15 0 -15 -2 0 -9 11 -14 25 -12 32 -37 32 -52 0 -15 -33 2 -55 27 -35 12 10 15 10 15 -2 0 -8 -5 -19 -11 -25 -5 -5 -22 -43 -37 -83 -26 -70 -29 -74 -70 -88 -49 -16 -53 -27 -14 -35 18 -4 31 0 41 11 12 15 13 14 7 -12 -4 -15 -10 -42 -13 -59 -5 -26 -7 -28 -13 -12 -9 27 -140 59 -156 39 -21 -26 -22 -14 -5 49 25 89 37 109 68 105 21 -2 34 -15 50 -46 3 -6 83 39 83 47 0 4 -30 20 -67 34 -54 21 -69 24 -81 14 -13 -10 -14 -9 -9 3 3 8 11 32 18 53 12 37 33 52 27 20 -2 -12 13 -23 57 -40 62 -24 85 -28 85 -15 0 4 -27 41 -60 82 -32 41 -58 75 -57 77 2 1 43 -2 92 -7 48 -5 92 -7 97 -4 18 11 5 31 -45 67 -37 27 -58 36 -75 32 -20 -5 -19 -1 14 45 40 56 47 61 39 28 -4 -19 5 -31 52 -65 53 -39 59 -41 71 -26 17 23 15 58 -5 74 -14 12 -16 12 -11 -1 2 -8 0 -20 -6 -26 -13 -13 -69 33 -59 50 4 6 0 5 -9 -2 -13 -10 -16 -9 -21 9 -5 17 -9 19 -26 9 -12 -6 -21 -8 -21 -5 0 3 -13 -9 -28 -26 -29 -33 -33 -79 -7 -79 17 0 69 -50 53 -51 -7 -1 -32 -1 -55 1 -64 3 -93 -40 -53 -80 11 -11 20 -28 20 -37 -1 -16 -2 -16 -13 -3 -20 25 -44 22 -70 -9 -14 -17 -28 -27 -32 -23 -4 4 -5 -3 -1 -15 3 -13 8 -31 11 -41 3 -10 -4 -27 -15 -39 -11 -12 -22 -36 -25 -54 -3 -17 -10 -39 -15 -49 -9 -17 -9 -31 3 -66 7 -20 -14 -79 -25 -69 -2 3 -3 -14 -1 -36 2 -24 -1 -38 -7 -34 -10 6 16 -63 32 -82 6 -7 7 -13 4 -13 -4 0 -2 -9 5 -21 9 -18 17 -20 57 -15 84 12 102 17 102 32 0 8 5 14 10 14 6 0 10 -15 10 -32 0 -18 3 -44 6 -58 5 -23 4 -23 -9 -8 -13 17 -45 16 -137 -3 -3 0 33 -11 80 -23 l85 -22 -75 -43 -75 -42 60 7 c70 8 75 10 76 32 0 9 17 -35 38 -99 21 -64 45 -127 54 -140 21 -29 22 -46 3 -30 -11 10 -27 6 -73 -18 l-58 -30 40 0 c22 0 59 4 83 8 23 5 42 4 42 0 0 -5 -17 -28 -37 -51 -71 -82 -72 -84 -13 -50 35 19 57 40 61 54 5 22 6 22 22 -9 20 -37 22 -52 6 -36 -9 9 -29 3 -80 -22 -56 -29 -66 -38 -62 -55 9 -33 -4 -23 -26 22 l-20 41 34 39 c19 21 35 40 35 42 0 3 -24 2 -52 -1 -50 -5 -54 -3 -74 23 -18 26 -80 202 -72 209 12 10 48 15 48 6 0 -6 -4 -11 -10 -11 -13 0 -13 -57 -1 -64 5 -4 21 -2 35 4 31 11 25 40 -8 41 -15 0 -10 5 19 18 42 19 57 19 37 -1 -23 -23 -14 -41 16 -33 15 3 31 10 35 15 14 12 -11 50 -41 62 l-27 11 25 8 c21 7 19 8 -10 4 -98 -13 -120 -18 -120 -31 0 -8 -4 -14 -10 -14 -5 0 -10 19 -10 43 0 42 2 45 47 70 30 16 42 27 33 30 -8 3 -34 10 -56 16 -38 10 -42 14 -48 51 -6 38 -26 57 -26 25 0 -8 -4 -15 -10 -15 -17 0 9 -54 37 -77 26 -21 26 -23 10 -41 -24 -26 -29 -78 -11 -97 9 -8 12 -15 8 -15 -3 0 0 -8 7 -17 8 -9 9 -14 3 -10 -11 6 24 -106 42 -134 5 -8 9 -19 10 -25 5 -34 32 -70 59 -78 41 -14 40 -12 22 -39 -15 -23 -14 -27 8 -59 13 -20 32 -38 43 -40 21 -6 55 15 44 27 -4 5 1 5 11 2 11 -4 16 -3 12 3 -3 6 -3 10 2 11 29 3 47 9 54 21 7 10 9 8 9 -6 0 -16 2 -16 21 5 18 21 18 20 -2 -10 -22 -33 -22 -34 -4 -47 10 -8 22 -14 27 -14 16 0 8 -26 -13 -40 -55 -39 -55 -39 -39 -50 21 -14 20 -15 78 36 51 45 52 47 35 66 -12 14 -27 19 -50 16 -40 -5 -42 4 -6 27 l27 18 58 -63 c32 -35 73 -74 90 -87 29 -21 30 -23 10 -23 -29 0 -30 -35 -1 -50 29 -16 56 -5 39 15 -20 24 -9 19 102 -48 57 -34 129 -71 160 -81 53 -19 57 -22 67 -62 14 -54 27 -63 36 -23 5 22 3 34 -6 40 -20 12 -3 22 18 10 11 -5 31 -11 46 -13 32 -5 48 -18 20 -18 -16 0 -24 -14 -41 -71 -12 -39 -19 -75 -16 -80 8 -13 31 -11 32 4 2 29 15 75 31 113 14 30 16 44 7 55 -17 22 -74 50 -80 40 -6 -10 -20 -9 -48 4 -10 4 -16 10 -14 14 3 4 -7 8 -22 9 -14 1 -29 8 -34 15 -4 6 -8 8 -8 3 0 -5 -7 -3 -15 4 -8 7 -15 10 -15 6 0 -3 -9 2 -19 11 -11 9 -18 20 -15 25 3 4 -2 5 -11 2 -8 -4 -22 -1 -30 6 -8 7 -15 9 -15 6 0 -4 -13 1 -30 11 -16 9 -30 20 -30 24 0 4 -10 10 -22 14 -13 4 -26 8 -30 10 -5 1 -12 3 -18 4 -5 0 -10 7 -10 15 0 20 -145 165 -176 176 -14 6 -27 18 -30 27 -14 45 -46 102 -60 107 -11 4 -15 14 -12 31 3 13 1 26 -4 27 -5 2 -10 17 -11 33 -1 17 -6 33 -10 36 -4 3 -9 15 -10 27 0 11 -4 19 -8 16 -4 -2 -10 0 -14 6 -3 5 -1 10 5 10 6 0 4 10 -6 25 -9 14 -14 32 -10 40 3 9 2 13 -4 10 -6 -3 -10 1 -10 9 0 9 -4 16 -10 16 -5 0 -9 3 -8 8 1 4 -2 23 -6 43 -5 22 -4 45 3 57 6 10 7 23 3 27 -4 3 -7 10 -8 13 0 4 -4 15 -9 25 -4 10 -3 29 4 44 6 14 12 57 12 97 1 39 6 77 12 84 5 7 9 33 9 57 -1 27 3 49 13 59 8 8 15 21 15 30 0 23 22 66 31 61 4 -3 5 8 3 25 -3 16 -1 30 4 30 6 0 8 9 5 20 -3 12 -1 20 5 18 5 -2 11 2 12 7 1 6 9 18 17 27 13 15 19 16 32 5 14 -10 14 -10 3 5 -15 18 -8 36 33 93 12 17 25 38 28 48 4 9 11 17 16 17 5 0 7 8 4 19 -3 13 2 20 20 25 26 6 123 94 114 103 -9 8 -34 -10 -83 -57 -39 -38 -45 -41 -39 -19 5 20 -3 33 -44 73 -33 32 -55 47 -65 43 -26 -10 -18 6 22 43 68 65 87 73 143 61 79 -17 84 -16 59 19 -21 30 -44 38 -54 21z m-371 -865 c67 -67 27 -176 -65 -176 -30 0 -47 6 -65 24 -67 67 -27 176 65 176 30 0 47 -6 65 -24z"/> <path d="M278 1584 c-25 -7 -34 -52 -16 -71 24 -23 93 -29 123 -9 28 18 33 47 10 66 -16 13 -89 22 -117 14z m73 -49 c0 -13 -27 -18 -48 -11 -12 5 -13 9 -3 21 12 15 52 7 51 -10z"/> <path d="M2240 2481 c0 -5 24 -28 53 -52 28 -23 56 -46 60 -50 10 -7 -13 -49 -26 -49 -5 0 -6 7 -3 16 7 17 -18 64 -33 64 -5 0 -30 -25 -55 -55 -45 -52 -47 -56 -32 -77 9 -12 16 -17 16 -10 0 7 4 11 9 8 11 -7 25 49 16 64 -3 5 3 10 14 10 10 0 27 3 37 7 12 4 7 -7 -16 -35 -36 -45 -35 -67 1 -33 13 12 32 21 44 21 12 0 28 12 38 29 22 37 22 37 -10 67 -21 20 -23 24 -7 19 10 -3 7 1 -9 8 -15 7 -24 17 -20 22 5 4 3 5 -3 2 -6 -3 -18 3 -27 14 -17 20 -47 26 -47 10z"/> <path d="M1488 2415 c-2 -2 -34 -5 -72 -9 -39 -4 -72 -9 -74 -11 -3 -2 -14 0 -25 6 -14 8 -18 8 -13 0 4 -6 0 -12 -11 -12 -41 -3 -60 -7 -98 -22 -55 -21 -79 -29 -84 -27 -2 1 -7 -2 -10 -7 -3 -5 -18 -13 -32 -20 -14 -6 -51 -28 -83 -49 -32 -22 -68 -44 -80 -51 -11 -7 -26 -20 -33 -29 -7 -10 -13 -15 -13 -11 0 3 -10 -4 -23 -16 -13 -12 -22 -25 -20 -28 1 -3 -8 -12 -21 -19 -14 -7 -27 -21 -29 -32 -4 -13 -10 -17 -18 -12 -7 4 -10 3 -6 -3 3 -5 -10 -32 -29 -59 -32 -43 -77 -120 -79 -134 0 -3 -6 -14 -12 -25 -9 -17 -34 -86 -39 -107 -1 -5 -3 -11 -4 -15 -1 -5 -2 -11 -1 -15 0 -4 -4 -20 -10 -35 -14 -35 -18 -72 -19 -203 0 -105 2 -132 21 -203 5 -20 7 -41 4 -46 -3 -5 -1 -11 5 -13 5 -1 11 -14 14 -28 2 -14 5 -26 7 -27 1 -2 2 -6 4 -10 1 -5 5 -16 9 -25 4 -9 5 -21 2 -26 -3 -6 0 -12 8 -15 19 -7 58 -86 50 -100 -4 -7 -4 -9 1 -5 9 8 51 -51 47 -65 -1 -5 2 -6 7 -3 5 3 17 -7 26 -22 10 -15 24 -31 32 -35 7 -4 13 -15 13 -23 0 -8 4 -13 8 -10 5 3 15 -6 22 -19 7 -14 18 -25 23 -25 5 0 29 -18 54 -40 25 -22 52 -40 59 -40 8 0 14 -4 14 -9 0 -5 22 -19 50 -32 27 -12 47 -26 44 -30 -3 -5 2 -6 10 -3 11 4 16 0 16 -12 0 -15 2 -16 9 -5 8 12 12 12 24 2 15 -12 61 -28 107 -37 14 -3 43 -10 65 -16 64 -17 271 -18 345 -2 36 8 73 15 83 16 9 1 17 5 17 8 0 3 11 7 24 8 44 3 261 113 249 126 -3 3 0 6 8 6 8 0 27 11 42 25 15 14 27 23 27 20 0 -4 7 0 15 9 8 8 15 18 15 22 0 3 25 31 55 61 30 30 55 57 55 59 0 7 44 68 55 76 6 4 7 8 2 8 -4 0 4 17 17 38 21 33 81 187 90 232 10 44 19 155 18 225 -1 99 -8 155 -27 211 -8 24 -16 53 -19 66 -13 65 -118 260 -167 309 -10 10 -19 24 -19 31 0 6 -2 9 -5 7 -2 -3 -32 21 -65 53 -34 32 -82 70 -108 85 -26 15 -49 30 -52 33 -15 16 -52 43 -47 33 4 -6 -13 -1 -38 12 -25 14 -45 22 -45 18 0 -3 -7 0 -15 7 -8 7 -15 9 -15 6 0 -4 -10 -1 -22 6 -28 15 -63 23 -111 27 -10 0 -16 4 -13 9 2 4 -14 7 -37 7 -23 -1 -61 2 -84 5 -24 4 -44 6 -45 5z m177 -44 c336 -69 600 -313 701 -646 24 -80 27 -107 28 -245 1 -131 -3 -168 -21 -236 -90 -329 -339 -578 -662 -661 -163 -42 -365 -33 -528 22 -96 33 -227 109 -299 175 -200 183 -300 395 -311 660 -25 589 516 1050 1092 931z"/> <path d="M1369 2321 c-105 -34 -184 -104 -237 -211 -23 -48 -26 -67 -27 -155 0 -93 2 -105 32 -165 39 -79 106 -149 173 -181 28 -13 50 -27 50 -31 0 -12 -37 -28 -67 -28 -18 0 -38 -10 -54 -27 -14 -16 -34 -33 -44 -39 -18 -10 -19 -14 -6 -37 9 -17 24 -27 45 -30 17 -2 12 -3 -11 -2 l-42 2 5 -56 c6 -57 6 -57 -32 -86 -52 -38 -56 -46 -39 -72 14 -21 12 -23 -35 -54 -48 -31 -50 -34 -50 -80 0 -38 -4 -49 -18 -53 -11 -4 -30 -18 -43 -32 -23 -24 -23 -26 -7 -54 15 -27 15 -29 -8 -51 -21 -19 -24 -31 -22 -69 l3 -45 59 -3 c53 -3 62 0 88 25 l29 28 367 1 367 1 36 -24 c31 -20 47 -24 100 -21 l64 3 3 41 c3 35 -1 44 -23 58 -24 16 -25 18 -10 47 20 38 12 65 -26 84 -26 14 -29 20 -29 65 0 46 -2 50 -34 65 -51 24 -72 51 -56 70 17 20 -8 58 -50 76 -30 13 -31 17 -27 59 2 25 7 53 11 62 7 15 4 17 -20 14 -16 -2 -21 -1 -11 1 15 4 12 11 -21 42 -33 32 -44 37 -74 33 -20 -2 -39 1 -42 7 -10 15 -278 15 -293 0 -6 -6 -23 -9 -39 -7 l-28 3 40 28 c39 26 44 27 175 27 128 0 137 -1 169 -25 40 -30 55 -33 21 -5 -21 18 -21 20 -4 20 22 0 103 -70 103 -90 0 -11 2 -12 13 -1 17 17 -77 100 -115 101 -69 1 -77 28 -16 56 60 27 139 109 174 179 26 55 29 69 29 165 0 93 -3 112 -27 162 -84 180 -283 269 -469 209z m241 -16 c57 -19 134 -77 177 -133 47 -62 77 -167 70 -247 -9 -121 -90 -246 -195 -303 -34 -19 -42 -20 -42 -8 0 8 14 24 30 36 38 27 38 46 0 68 -32 18 -39 37 -15 45 27 11 74 89 85 143 16 75 -6 149 -61 209 -54 59 -110 79 -195 72 -78 -6 -130 -37 -178 -105 -25 -35 -31 -55 -34 -113 -4 -60 -1 -77 23 -124 16 -34 41 -65 62 -79 l34 -24 -30 -15 c-29 -15 -49 -8 -37 12 3 5 -5 11 -18 13 -19 4 -25 0 -28 -17 -3 -14 2 -26 14 -34 11 -7 18 -7 18 -1 0 5 4 10 10 10 5 0 7 -7 3 -16 -4 -10 6 -26 26 -44 27 -25 40 -50 26 -50 -15 0 -86 48 -123 83 -125 120 -153 282 -76 436 39 77 89 128 165 166 91 47 188 53 289 20z m-49 -140 c126 -45 185 -194 125 -313 -35 -69 -47 -77 -80 -51 l-26 21 30 36 c50 61 38 147 -28 197 -21 15 -43 20 -95 20 -68 0 -69 0 -109 -43 -39 -42 -40 -46 -36 -98 4 -42 11 -61 32 -83 l27 -28 -27 -22 c-15 -12 -32 -20 -38 -18 -25 8 -67 96 -73 149 -5 46 -1 65 20 110 51 113 165 163 278 123z m-126 -120 c-11 -8 -30 -24 -42 -37 -12 -12 -25 -19 -29 -15 -9 9 57 67 76 67 11 -1 10 -4 -5 -15z m135 4 c12 -8 9 -9 -12 -5 -23 5 -25 3 -20 -16 4 -17 2 -20 -12 -15 -10 4 -20 7 -23 7 -4 0 2 9 12 20 20 22 33 25 55 9z m-74 -31 c30 -18 38 -28 36 -45 -4 -28 -28 -30 -37 -3 -3 11 -10 20 -15 20 -5 0 -7 8 -3 18 6 15 4 15 -15 -2 -27 -23 -28 -33 -4 -40 9 -3 25 -20 34 -36 15 -26 15 -32 3 -36 -7 -3 -22 -1 -32 5 -16 9 -16 10 -1 11 12 0 15 6 10 22 l-5 22 -9 -24 c-8 -23 -9 -23 -27 -4 -18 19 -18 40 0 29 13 -9 11 9 -3 23 -16 16 -29 15 -22 -2 7 -18 -12 -30 -22 -15 -6 10 55 79 70 79 2 0 21 -10 42 -22z m115 -9 c11 -21 0 -26 -18 -8 -8 8 -13 8 -17 0 -4 -6 -2 -11 3 -11 6 0 11 -13 11 -30 0 -16 -4 -30 -10 -30 -5 0 -7 -6 -4 -13 7 -21 -31 -50 -55 -42 -13 4 -18 11 -14 18 4 7 6 20 5 30 -2 9 1 17 7 17 6 0 8 -7 5 -15 -4 -10 0 -15 13 -15 16 0 18 7 17 59 -2 56 0 59 22 59 14 0 29 -9 35 -19z m19 -60 c0 -17 -4 -28 -10 -24 -5 3 -10 17 -10 31 0 13 5 24 10 24 6 0 10 -14 10 -31z m-219 -50 c4 -21 7 -26 8 -12 1 20 4 21 26 11 27 -12 32 -24 13 -31 -7 -3 4 -3 25 0 22 3 37 2 37 -5 0 -5 -26 -12 -57 -14 -60 -4 -84 6 -105 45 -7 15 -6 18 9 15 13 -2 17 2 15 16 -2 11 1 17 10 14 7 -3 16 -20 19 -39z m208 -10 c-6 -12 -19 -24 -30 -26 -10 -3 -16 -9 -13 -14 7 -12 -7 -11 -26 1 -13 8 -13 10 1 10 9 0 22 11 29 25 7 14 22 25 32 25 16 0 17 -3 7 -21z m-49 -74 l23 -25 -107 0 -107 0 28 25 c22 20 39 24 84 25 47 0 59 -4 79 -25z m-12 -42 c-38 -2 -98 -2 -135 0 -38 2 -7 3 67 3 74 0 105 -1 68 -3z m47 -23 c4 -6 -35 -10 -109 -10 -71 0 -116 4 -116 10 0 6 43 10 109 10 63 0 112 -4 116 -10z m42 -45 c13 -9 20 -22 17 -30 -5 -12 -35 -15 -174 -15 -176 0 -195 5 -162 43 13 15 34 17 156 17 111 0 146 -3 163 -15z m-85 -62 c-40 -2 -103 -2 -140 0 -37 2 -4 3 73 3 77 0 107 -2 67 -3z m-57 -41 c95 3 105 2 105 -14 0 -16 -12 -18 -120 -18 l-120 0 0 26 c0 22 2 25 15 14 10 -9 46 -11 120 -8z m-223 -90 c-18 -15 -32 -31 -32 -36 0 -5 -8 -15 -17 -22 -10 -7 -13 -14 -6 -14 6 0 15 5 18 10 3 6 18 10 32 10 21 0 24 -2 13 -15 -17 -21 -63 -19 -84 4 -16 17 -15 19 9 35 15 10 35 26 46 37 10 10 27 19 37 19 13 0 9 -7 -16 -28z m377 -53 c29 -35 32 -44 22 -62 -8 -14 -11 -65 -9 -142 l3 -119 35 -22 c19 -13 43 -30 52 -38 10 -8 37 -27 60 -42 56 -35 98 -74 98 -93 0 -8 -7 -23 -17 -33 -15 -17 -15 -19 0 -36 10 -11 17 -35 17 -57 l0 -39 -28 27 -28 27 -376 0 c-365 0 -376 -1 -402 -21 l-26 -20 0 37 c0 23 6 41 17 49 17 13 17 14 0 32 -34 38 -17 64 80 122 28 17 54 38 57 46 3 8 11 15 17 15 7 0 27 11 46 26 l33 25 0 124 c0 72 -4 126 -10 130 -19 12 -10 37 25 71 l35 34 133 0 132 0 34 -41z m87 -14 c18 -14 17 -14 -12 -15 -17 0 -37 7 -44 15 -10 13 -9 15 12 15 13 0 33 -7 44 -15z m-461 -180 l0 -130 -42 -23 c-27 -15 -55 -22 -75 -20 l-33 3 33 18 32 18 0 135 0 135 43 -3 42 -3 0 -130z m497 122 c-6 -7 -11 -63 -11 -129 l-1 -117 38 -23 37 -23 -33 -3 c-20 -2 -48 5 -75 20 l-42 23 -3 120 c-1 65 0 125 2 132 3 8 23 13 52 13 36 0 44 -3 36 -13z m-608 -252 c-10 -5 -36 -26 -58 -45 -79 -68 -76 -68 -76 -22 0 37 4 42 44 66 47 27 62 51 46 71 -14 17 -4 38 28 57 l27 17 3 -67 c3 -55 0 -69 -14 -77z m683 99 c3 -8 -1 -21 -8 -30 -11 -14 -9 -20 16 -43 17 -14 41 -33 53 -41 19 -12 23 -22 20 -55 l-3 -39 -64 57 c-35 31 -67 57 -72 57 -5 0 -9 32 -9 70 l0 71 31 -16 c16 -9 33 -23 36 -31z m-687 -178 c0 -2 -20 -16 -44 -30 -63 -37 -88 -70 -75 -103 8 -21 7 -24 -7 -19 -8 3 -26 6 -40 6 -30 0 -44 44 -22 67 34 33 125 81 156 82 17 1 32 -1 32 -3z m733 -18 c19 -13 49 -31 66 -40 38 -21 47 -41 33 -74 -9 -19 -19 -24 -47 -24 -37 0 -43 8 -23 28 17 17 -15 58 -76 100 l-48 32 30 0 c17 0 47 -10 65 -22z m-838 -158 c-3 -5 -26 -10 -51 -10 -28 0 -43 4 -39 10 3 6 26 10 51 10 28 0 43 -4 39 -10z m940 0 c4 -6 -12 -10 -39 -10 -25 0 -46 5 -46 10 0 6 18 10 39 10 22 0 43 -4 46 -10z m-958 -67 l3 -43 -55 0 -55 0 0 38 c0 21 3 42 7 46 4 4 28 6 53 4 l45 -3 2 -42z m983 7 l0 -40 -50 0 -50 0 0 33 c0 43 2 44 55 45 l45 1 0 -39z"/> <path d="M1508 2255 c-2 -31 1 -45 9 -45 7 0 14 13 15 30 0 17 1 35 2 42 1 6 -4 13 -10 15 -8 3 -13 -13 -16 -42z"/> <path d="M1371 2276 c-9 -11 -8 -18 4 -30 9 -9 23 -16 31 -16 8 0 14 -5 14 -11 0 -6 -9 -9 -20 -6 -12 3 -20 0 -20 -8 0 -17 35 -8 52 12 10 12 9 18 -7 29 -10 8 -25 14 -32 14 -7 0 -13 5 -13 11 0 6 9 9 20 6 11 -3 20 -1 20 4 0 14 -36 11 -49 -5z"/> <path d="M1580 2276 c0 -7 3 -16 8 -20 4 -4 12 -24 17 -44 l11 -37 21 43 c11 23 17 42 12 42 -4 0 -11 -10 -15 -22 -7 -22 -8 -21 -16 8 -8 32 -38 55 -38 30z"/> <path d="M1280 2230 c-14 -11 -20 -20 -15 -20 6 0 19 -14 29 -30 17 -30 18 -30 46 -14 18 11 26 23 22 32 -4 11 -8 9 -14 -9 l-9 -24 -25 28 c-25 29 -24 53 2 43 8 -3 14 -1 14 4 0 16 -23 11 -50 -10z"/> <path d="M1703 2160 c-38 -34 -25 -51 14 -20 26 20 28 20 40 4 7 -10 16 -14 20 -10 4 3 -4 17 -18 31 l-24 24 -32 -29z"/> <path d="M1202 2150 c-12 -16 -18 -31 -13 -34 5 -4 11 0 14 6 3 9 13 7 34 -9 28 -20 43 -21 43 -3 0 3 -14 14 -31 24 -24 14 -28 20 -18 32 6 8 8 14 3 13 -5 0 -19 -13 -32 -29z"/> <path d="M1760 2083 c-42 -18 -44 -19 -36 -32 4 -6 17 -4 36 5 16 9 34 13 40 9 5 -3 10 1 10 9 0 23 -12 25 -50 9z"/> <path d="M1173 2073 c-18 -7 -16 -23 2 -23 8 0 15 -7 15 -15 0 -12 -4 -13 -19 -6 -14 8 -20 7 -24 -3 -4 -9 4 -16 21 -19 15 -3 35 -9 45 -12 12 -5 17 -2 17 9 0 9 -8 16 -17 16 -13 1 -10 5 10 16 15 8 27 19 27 25 0 6 -8 6 -21 -1 -16 -9 -23 -8 -32 3 -7 8 -18 13 -24 10z"/> <path d="M1750 1967 c0 -9 11 -12 36 -9 28 3 35 1 32 -9 -3 -8 -19 -14 -36 -14 -37 0 -41 -9 -12 -25 30 -16 60 4 60 40 0 28 -2 30 -40 30 -26 0 -40 -5 -40 -13z"/> <path d="M1152 1958 c-28 -28 -7 -78 33 -78 27 0 45 18 45 47 0 35 -53 56 -78 31z m68 -33 c0 -18 -48 -31 -62 -17 -16 16 0 32 33 32 19 0 29 -5 29 -15z"/> <path d="M1736 1882 c-11 -11 -6 -22 10 -22 10 0 14 -6 10 -15 -3 -8 -1 -15 3 -15 5 0 11 4 13 10 2 6 8 6 18 -1 13 -8 12 -11 -4 -24 -16 -12 -17 -15 -4 -15 9 0 21 14 27 30 7 22 7 30 -2 30 -7 0 -24 6 -39 14 -15 8 -29 12 -32 8z"/> <path d="M1204 1825 c3 -9 -1 -18 -9 -21 -7 -3 -11 -12 -9 -19 4 -10 14 -8 43 8 23 13 37 27 34 34 -4 11 -8 11 -21 1 -12 -10 -16 -10 -19 0 -3 6 -9 12 -15 12 -6 0 -7 -7 -4 -15z"/> <path d="M1680 1735 c0 -29 21 -48 35 -31 19 21 13 44 -11 49 -20 3 -24 0 -24 -18z"/> <path d="M1347 1444 c-4 -4 -7 -73 -7 -154 0 -143 -1 -147 -25 -170 -14 -13 -25 -31 -25 -39 0 -9 -9 -22 -20 -29 -28 -17 -26 -50 5 -58 14 -3 22 -10 19 -15 -3 -5 84 -10 193 -12 l198 -3 -205 -1 c-113 -1 -213 -2 -223 -2 -15 -1 -18 -8 -15 -43 l3 -43 245 0 245 0 3 35 c3 28 -2 39 -24 57 l-28 22 27 6 c34 9 34 25 2 55 -14 13 -25 27 -25 32 0 5 -10 23 -22 39 -21 29 -23 41 -23 177 l0 147 -146 3 c-80 1 -148 -1 -152 -4z m216 -11 c-34 -2 -93 -2 -130 0 -37 2 -9 3 62 3 72 0 102 -1 68 -3z m-193 -104 l0 -89 120 0 120 0 0 90 c0 53 4 90 10 90 6 0 10 -36 10 -89 0 -74 -3 -90 -17 -95 -9 -4 -72 -6 -140 -5 l-123 1 0 100 c0 63 4 97 10 93 6 -3 10 -46 10 -96z m230 6 l0 -85 -110 0 -110 0 0 85 0 85 110 0 110 0 0 -85z m30 -157 l0 -33 -137 2 -138 2 -3 30 -3 31 140 0 141 0 0 -32z m28 -65 c3 -10 -35 -13 -168 -13 -153 0 -171 2 -160 15 11 13 39 15 168 13 113 -2 156 -6 160 -15z m22 -33 c0 -6 -70 -10 -190 -10 -120 0 -190 4 -190 10 0 6 70 10 190 10 120 0 190 -4 190 -10z m28 -42 c7 -7 12 -16 12 -20 0 -4 -103 -8 -230 -8 -126 0 -230 4 -230 8 0 28 30 32 230 32 147 0 209 -3 218 -12z m12 -118 l0 -30 -85 0 c-85 0 -85 0 -85 26 0 16 -5 24 -12 21 -7 -2 -12 -14 -11 -26 2 -17 -2 -21 -28 -21 -19 0 -28 4 -24 11 4 6 13 8 21 5 9 -4 14 2 14 16 0 16 -3 18 -14 9 -11 -9 -15 -9 -19 1 -4 10 -7 10 -18 -1 -12 -12 -12 -13 1 -6 12 7 13 6 3 -7 -7 -8 -10 -18 -6 -21 3 -4 1 -7 -5 -7 -7 0 -12 12 -12 26 0 14 -4 23 -9 20 -5 -3 -7 -15 -4 -26 5 -19 0 -20 -86 -20 l-91 0 0 30 0 30 235 0 235 0 0 -30z"/> <path d="M1397 1404 c-4 -4 -7 -38 -7 -76 l0 -69 98 3 97 3 0 70 0 70 -90 3 c-50 1 -94 0 -98 -4z m173 -69 c0 -49 -3 -65 -14 -65 -17 0 -27 34 -20 69 5 22 1 29 -18 37 -12 6 -29 9 -35 8 -7 -1 -17 -2 -23 -3 -5 0 -10 -12 -10 -26 0 -14 -7 -28 -15 -31 -19 -8 -19 -19 1 -38 14 -15 13 -16 -10 -16 -24 0 -25 2 -25 58 1 31 3 60 6 65 2 4 40 7 84 7 l79 0 0 -65z m-91 -47 c-10 -7 -8 -8 8 -3 12 3 24 1 28 -5 9 -15 -37 -12 -57 4 -22 16 -24 30 -3 23 8 -4 18 -1 22 5 5 9 8 8 11 -1 2 -7 -2 -18 -9 -23z"/> <path d="M663 2403 c-24 -8 -13 -28 41 -82 66 -65 82 -53 29 23 -40 58 -50 66 -70 59z"/> <path d="M2380 2297 c-40 -37 -97 -77 -110 -77 -6 0 -10 -3 -11 -7 0 -5 -2 -18 -5 -30 -2 -14 7 -32 26 -53 17 -18 30 -36 30 -41 0 -5 6 -9 13 -9 18 0 43 -32 51 -64 4 -16 15 -30 24 -33 13 -3 18 -16 19 -45 1 -23 8 -45 15 -49 7 -4 9 -11 5 -15 -4 -4 -2 -13 4 -20 6 -8 9 -21 5 -29 -3 -10 -2 -13 4 -10 6 4 19 -4 29 -16 14 -17 22 -21 32 -13 22 16 42 11 45 -13 3 -17 -1 -21 -16 -18 -17 3 -19 1 -9 -16 6 -12 17 -18 27 -15 9 2 43 10 75 16 41 8 57 16 57 27 0 9 2 14 4 12 6 -6 33 -152 41 -215 5 -51 5 -52 -25 -56 -36 -5 -36 -4 -10 22 36 36 26 43 -52 35 -40 -4 -76 -9 -80 -11 -19 -12 11 -35 88 -70 46 -22 84 -41 84 -44 0 -3 -36 -18 -81 -35 -82 -30 -113 -51 -88 -59 31 -9 109 -26 123 -26 8 0 20 9 26 21 11 19 9 20 -19 16 -44 -7 -37 15 9 25 9 3 45 52 46 63 0 5 -4 15 -9 22 -5 7 -4 19 1 30 12 24 25 122 13 104 -6 -10 -9 -4 -9 20 0 19 -2 48 -6 64 -4 17 -9 44 -12 60 -3 17 -9 35 -13 40 -11 14 -33 106 -27 112 5 5 -4 18 -37 54 -15 17 -21 18 -34 8 -34 -29 -70 -17 -40 13 19 18 37 54 37 71 0 25 -90 43 -117 23 -8 -5 -13 -4 -13 3 0 6 5 11 10 11 6 0 10 9 10 19 0 11 5 23 12 27 7 5 8 3 3 -6 -5 -8 -4 -11 3 -6 10 6 9 36 -2 55 -4 5 0 12 6 15 11 5 11 7 0 12 -6 3 -10 10 -6 15 3 5 0 9 -5 9 -6 0 -11 6 -11 13 0 6 -16 29 -35 50 -19 21 -35 35 -35 31 0 -3 -6 -2 -13 4 -10 8 -21 3 -47 -21z m84 -46 c44 -66 47 -107 10 -145 -32 -31 -88 -35 -119 -8 -21 19 -85 98 -85 105 0 3 9 3 19 0 13 -3 39 10 75 37 46 35 55 47 50 64 -8 28 4 15 50 -53z m136 -208 c0 -2 -27 -36 -60 -75 -33 -40 -60 -75 -60 -80 0 -11 18 -10 72 6 70 22 88 34 81 54 -4 11 -3 14 4 7 6 -5 18 -32 27 -59 28 -85 18 -126 -30 -126 -23 0 -64 42 -64 65 0 11 -6 11 -30 2 -18 -7 -30 -19 -30 -30 0 -29 -17 -10 -24 27 -4 19 -18 55 -31 81 -23 42 -23 46 -6 40 23 -7 35 19 21 46 -13 23 -55 27 -46 4 9 -26 -10 -16 -22 10 -7 14 -12 27 -12 28 0 4 210 5 210 0z"/> <path d="M2387 2194 c-48 -37 -56 -48 -46 -60 19 -23 64 -17 98 15 31 29 36 45 25 75 -9 23 -12 21 -77 -30z"/> <path d="M2480 2016 c0 -24 16 -27 35 -6 18 19 17 20 -8 20 -17 0 -27 -5 -27 -14z"/> <path d="M2612 1862 c-27 -8 -30 -23 -8 -37 19 -12 49 4 54 29 4 17 -7 18 -46 8z"/> <path d="M290 1761 c-11 -22 -8 -25 33 -35 32 -8 47 15 27 39 -17 21 -47 19 -60 -4z"/> <path d="M2500 1745 c0 -5 -5 -29 -9 -53 -5 -23 -6 -40 -3 -37 3 2 11 -4 19 -15 10 -14 11 -25 4 -39 -6 -10 -8 -20 -6 -22 2 -3 7 -18 10 -34 3 -17 8 -37 10 -45 2 -8 4 -18 4 -22 1 -5 6 -8 12 -8 9 0 10 24 6 80 -4 67 -3 79 8 70 9 -8 37 -9 84 -4 78 7 91 22 44 48 l-28 15 30 1 c21 0 26 3 18 11 -8 8 -25 8 -65 -1 -84 -19 -88 -20 -88 -36 0 -24 -20 -5 -20 19 -1 23 -28 89 -30 72z"/> <path d="M2556 1476 c-9 -14 -16 -30 -16 -36 0 -6 -5 -8 -12 -4 -6 4 -8 3 -4 -4 3 -6 2 -13 -3 -16 -5 -4 -8 -18 -5 -32 3 -14 -1 -33 -8 -42 -10 -12 -10 -14 0 -8 8 5 12 0 12 -18 0 -16 7 -27 21 -31 16 -5 18 -10 8 -21 -6 -7 -16 -11 -23 -7 -6 3 -8 3 -4 -1 8 -9 -13 -36 -23 -30 -4 2 -6 -9 -5 -25 0 -16 3 -29 6 -28 3 1 14 -4 26 -10 11 -7 40 -14 64 -17 24 -3 46 -9 49 -14 3 -5 17 -11 32 -14 24 -4 39 4 50 27 2 6 7 9 11 8 4 -2 4 6 0 17 -11 31 -27 27 -30 -7 -3 -32 -22 -48 -22 -19 0 13 -110 46 -154 46 -32 0 -14 16 72 65 l87 49 -60 11 c-66 12 -75 11 -75 -11 0 -8 -4 -13 -9 -10 -5 4 -5 22 0 43 5 21 9 56 10 78 1 22 3 32 6 23 9 -36 46 -11 41 27 -4 37 -21 42 -42 11z"/> <path d="M2730 1312 c-11 -36 -22 -48 -74 -80 l-61 -37 30 -6 c50 -11 65 -10 65 6 0 8 3 15 8 15 11 1 43 48 51 78 5 15 5 36 1 47 -6 17 -10 13 -20 -23z"/> <path d="M2485 1108 c-37 -20 -62 -55 -71 -97 -1 -8 -9 -18 -16 -22 -7 -5 -9 -9 -4 -9 5 0 0 -10 -12 -22 -17 -20 -49 -83 -41 -83 2 0 -9 -12 -24 -27 -15 -15 -27 -32 -27 -38 0 -6 -5 -8 -11 -4 -7 4 -4 -7 7 -25 10 -17 23 -31 29 -31 5 0 22 -10 37 -23 21 -16 25 -26 18 -37 -6 -10 -10 -11 -10 -3 0 7 -7 10 -14 7 -8 -3 -27 6 -43 20 -33 31 -54 19 -30 -18 11 -16 36 -30 73 -41 63 -18 76 -14 49 15 -18 20 -18 20 12 14 41 -8 53 13 22 37 -80 62 -99 72 -114 59 -9 -8 -15 -8 -15 -2 0 6 5 14 11 17 12 8 90 128 104 160 9 20 9 20 12 0 2 -12 30 -36 65 -58 53 -33 63 -36 75 -24 13 12 11 15 -11 21 -26 6 -37 28 -13 25 32 -4 48 3 59 26 15 34 -11 71 -60 86 -57 17 -82 1 -82 -52 0 -24 -4 -38 -10 -34 -5 3 -10 22 -10 40 0 44 51 105 87 105 32 0 80 -25 93 -49 17 -32 12 -86 -11 -115 -11 -14 -18 -30 -15 -35 4 -5 2 -11 -2 -13 -5 -1 -26 -32 -46 -68 -59 -101 -202 -268 -195 -226 3 14 -4 21 -25 27 -17 5 -32 7 -34 4 -8 -8 16 -60 27 -57 6 1 11 -2 11 -6 0 -9 -33 -42 -42 -42 -3 0 -8 25 -10 55 -4 43 -11 62 -33 85 -30 31 -52 32 -33 0 14 -22 -4 -50 -33 -50 -25 0 -57 54 -51 85 7 40 22 40 22 1 0 -20 4 -36 9 -36 4 0 33 24 63 54 45 45 52 55 36 59 -11 3 -15 1 -12 -5 4 -6 1 -9 -7 -6 -7 2 -24 -6 -37 -19 -19 -19 -26 -21 -43 -10 -18 10 -23 9 -40 -13 -10 -14 -24 -31 -29 -37 -8 -10 -6 -13 7 -14 11 0 13 -3 5 -6 -6 -2 -10 -9 -7 -14 4 -5 -16 -19 -42 -31 -26 -13 -50 -26 -51 -31 -2 -4 -8 -5 -13 -1 -5 3 -9 2 -8 -3 4 -20 -2 -33 -15 -33 -9 0 -13 -10 -12 -29 l2 -29 -43 13 c-25 8 -45 9 -49 4 -3 -5 -9 -7 -14 -4 -5 3 -12 0 -16 -6 -5 -8 -3 -9 6 -4 9 5 11 4 6 -4 -6 -8 -12 -9 -20 -2 -7 6 -16 8 -20 4 -6 -7 -24 -11 -58 -15 -10 -1 -18 -6 -18 -11 0 -4 -4 -6 -9 -2 -5 3 -12 1 -16 -5 -3 -5 -19 -7 -36 -3 -23 4 -34 0 -55 -22 -17 -19 -23 -33 -18 -48 17 -55 61 -64 114 -26 55 40 66 38 76 -16 5 -30 -7 -38 -42 -25 -26 10 -27 10 -12 -12 21 -32 73 -36 88 -7 15 27 6 85 -16 110 -22 25 -59 24 -84 -1 -15 -15 -20 -17 -20 -5 0 23 50 50 93 50 30 0 44 -7 63 -28 26 -30 32 -83 14 -118 -13 -23 -61 -49 -93 -49 -12 0 -27 -4 -33 -10 -6 -6 -15 7 -24 38 l-14 47 -9 -33 c-8 -25 -6 -36 7 -50 9 -10 14 -21 12 -23 -8 -8 40 -3 54 6 9 6 11 4 5 -6 -7 -12 -6 -12 7 -1 9 7 20 12 24 11 20 -3 34 2 63 27 23 19 38 24 56 20 18 -5 33 1 57 22 18 15 46 29 62 30 36 3 112 45 148 83 36 38 14 37 -48 -3 -83 -55 -93 -57 -144 -35 -25 10 -55 23 -67 28 l-23 8 20 -37 c11 -20 30 -39 41 -42 19 -5 17 -7 -15 -23 l-36 -17 5 23 c4 14 -7 49 -29 94 -20 40 -31 73 -27 73 5 0 43 -16 85 -35 43 -19 81 -35 87 -35 5 0 -2 22 -16 49 -16 33 -32 51 -47 54 -22 3 -22 4 -3 12 11 4 27 13 35 20 8 6 32 22 54 35 37 22 38 22 32 3 -4 -14 4 -39 26 -76 35 -60 47 -70 67 -57 10 6 8 14 -9 33 -12 14 -21 28 -20 32 1 4 -6 13 -16 19 -29 22 -11 46 29 39 20 -3 37 -1 41 6 4 6 14 11 23 11 9 0 13 -3 10 -6 -3 -4 -2 -15 4 -25 7 -13 6 -19 -1 -19 -18 0 19 -47 41 -53 12 -3 19 -3 16 -1 -8 9 76 84 86 77 6 -3 7 -1 3 5 -4 7 0 12 10 12 10 0 15 3 11 6 -3 3 13 25 36 48 24 22 56 62 73 88 17 26 34 44 38 40 4 -3 4 1 0 11 -3 9 -2 17 3 17 5 0 15 16 22 35 7 19 16 35 21 35 5 0 7 6 4 13 -3 8 2 20 11 27 8 7 15 19 15 27 0 8 4 12 9 9 4 -3 6 6 3 21 -3 17 -1 24 6 19 6 -3 14 -1 18 5 4 7 3 9 -4 5 -7 -4 -10 3 -9 21 2 16 -2 33 -8 39 -5 6 -19 22 -29 37 -11 14 -23 24 -28 21 -4 -3 -8 -2 -8 3 0 12 -83 13 -105 1z m58 -122 c17 -13 24 -48 10 -44 -5 0 -16 -2 -26 -7 -21 -9 -47 10 -47 35 0 29 34 38 63 16z m-858 -596 c0 -18 -6 -26 -23 -28 -13 -2 -25 3 -28 12 -10 26 4 48 28 44 17 -2 23 -10 23 -28z"/> <path d="M405 1046 c-59 -23 -79 -46 -57 -68 13 -13 137 51 137 71 0 22 -15 22 -80 -3z"/> <path d="M2382 878 c-23 -23 -12 -46 39 -87 29 -23 56 -41 61 -41 15 0 21 30 8 45 -8 10 -9 15 -2 15 6 0 14 -5 17 -10 7 -11 25 -4 25 9 0 6 -121 81 -131 81 -3 0 -10 -5 -17 -12z"/> <path d="M667 644 c-38 -36 -46 -50 -41 -67 5 -15 -9 -5 -42 28 -40 41 -49 47 -52 31 -2 -10 0 -21 6 -25 5 -3 14 -16 20 -27 16 -31 62 -40 81 -17 9 10 24 25 33 32 16 12 16 10 8 -20 -5 -17 -11 -34 -14 -36 -9 -9 16 -62 31 -68 9 -3 41 6 70 21 30 14 61 23 70 19 14 -5 9 -13 -27 -45 l-43 -38 19 -30 c10 -17 24 -31 29 -33 36 -8 45 -12 45 -18 0 -4 16 -13 35 -20 19 -7 35 -17 35 -23 0 -6 3 -9 6 -5 4 3 18 0 33 -7 14 -7 41 -14 59 -14 17 0 39 -7 47 -14 30 -27 40 -33 55 -33 8 0 31 -5 49 -11 26 -9 41 -9 59 -1 21 10 17 13 -52 33 -42 12 -83 27 -92 34 -21 19 -14 63 13 75 17 7 21 15 17 30 -26 83 -36 83 -71 0 -18 -46 -22 -64 -13 -77 8 -14 7 -18 -4 -18 -8 0 -17 4 -21 9 -3 5 -19 12 -35 16 -33 7 -39 20 -12 27 17 5 70 123 60 134 -3 3 -43 -12 -88 -33 -72 -33 -79 -39 -64 -50 22 -16 56 -17 72 -1 19 19 15 -7 -5 -31 l-18 -21 -67 41 -68 41 85 41 c47 22 85 43 85 47 0 10 -48 30 -70 30 -10 0 -22 -4 -25 -10 -3 -5 -11 -10 -16 -10 -5 0 -2 11 7 25 9 14 14 25 10 25 -3 0 -42 -20 -87 -45 -45 -25 -83 -44 -85 -42 -2 1 8 39 21 82 41 131 31 144 -48 69z"/> <path d="M2024 527 c-5 -15 41 -123 58 -133 5 -3 16 0 24 7 11 12 8 24 -24 76 -38 64 -49 73 -58 50z"/> <path d="M1135 329 c-5 -14 -1 -27 9 -37 19 -19 32 -9 41 31 6 24 4 27 -18 27 -17 0 -28 -7 -32 -21z"/> </g> </svg> 